<svg xmlns="http://www.w3.org/2000/svg" viewBox="0 0 100 140" fill="none">
  <!-- Curved Zeta symbol in teal -->
  <path
    d="M 25 25 
       Q 45 18, 65 22 
       Q 78 26, 82 38
       Q 84 48, 78 58
       Q 70 68, 55 73
       L 42 80
       Q 30 87, 26 98
       Q 24 108, 32 115
       Q 43 122, 60 118
       Q 75 114, 82 103
       L 78 108
       Q 70 118, 55 123
       Q 38 128, 22 122
       Q 12 116, 10 104
       Q 8 92, 15 82
       Q 24 72, 40 66
       L 58 58
       Q 70 52, 75 42
       Q 78 34, 73 28
       Q 66 22, 52 23
       Q 36 24, 28 32
       L 25 25 Z"
    fill="#14B8A6"
  />
</svg>
